<svg width="533" height="153" viewBox="0 0 533 153" fill="none" xmlns="http://www.w3.org/2000/svg">
<g filter="url(#filter0_d)">
<path d="M39.125 45.25H51.5L66.875 86.75L70.1875 96.875L73.625 86.5L88.875 45.25H100.812L76.1875 108H63.6875L39.125 45.25Z" fill="#40B883"/>
</g>
<path d="M166.438 108H156.688L156.312 97.875C154.438 100.042 152.646 101.854 150.938 103.312C149.271 104.729 147.604 105.875 145.938 106.75C144.271 107.625 142.583 108.229 140.875 108.562C139.208 108.938 137.438 109.125 135.562 109.125C129.104 109.125 124.229 107.229 120.938 103.438C117.646 99.6458 116 93.9167 116 86.25V45.25H126.875V85.375C126.875 95 130.5 99.8125 137.75 99.8125C139.083 99.8125 140.375 99.625 141.625 99.25C142.917 98.8333 144.25 98.1458 145.625 97.1875C147.042 96.1875 148.542 94.8542 150.125 93.1875C151.75 91.5208 153.562 89.4167 155.562 86.875V45.25H166.438V108ZM236.062 90.875C236.062 93.0833 235.688 95.0625 234.938 96.8125C234.188 98.5625 233.167 100.125 231.875 101.5C230.583 102.833 229.083 103.979 227.375 104.938C225.667 105.896 223.833 106.688 221.875 107.312C219.958 107.938 217.979 108.396 215.938 108.688C213.896 108.979 211.896 109.125 209.938 109.125C205.688 109.125 201.771 108.938 198.188 108.562C194.646 108.188 191.167 107.583 187.75 106.75V96.75C191.417 97.7917 195.062 98.5833 198.688 99.125C202.312 99.6667 205.917 99.9375 209.5 99.9375C214.708 99.9375 218.562 99.2292 221.062 97.8125C223.562 96.3958 224.812 94.375 224.812 91.75C224.812 90.625 224.604 89.625 224.188 88.75C223.812 87.8333 223.104 86.9792 222.062 86.1875C221.021 85.3542 219.396 84.5 217.188 83.625C215.021 82.75 212.042 81.75 208.25 80.625C205.417 79.7917 202.792 78.8542 200.375 77.8125C198 76.7292 195.938 75.4583 194.188 74C192.438 72.5417 191.062 70.8333 190.062 68.875C189.062 66.9167 188.562 64.6042 188.562 61.9375C188.562 60.1875 188.958 58.2708 189.75 56.1875C190.583 54.1042 191.979 52.1667 193.938 50.375C195.896 48.5833 198.542 47.1042 201.875 45.9375C205.208 44.7292 209.375 44.125 214.375 44.125C216.833 44.125 219.562 44.2708 222.562 44.5625C225.562 44.8125 228.688 45.2708 231.938 45.9375V55.625C228.521 54.7917 225.271 54.1875 222.188 53.8125C219.146 53.3958 216.5 53.1875 214.25 53.1875C211.542 53.1875 209.25 53.3958 207.375 53.8125C205.542 54.2292 204.042 54.8125 202.875 55.5625C201.75 56.2708 200.938 57.125 200.438 58.125C199.938 59.0833 199.688 60.125 199.688 61.25C199.688 62.375 199.896 63.3958 200.312 64.3125C200.771 65.2292 201.583 66.125 202.75 67C203.958 67.8333 205.625 68.6875 207.75 69.5625C209.875 70.3958 212.646 71.3125 216.062 72.3125C219.771 73.3958 222.896 74.5417 225.438 75.75C227.979 76.9167 230.042 78.2292 231.625 79.6875C233.208 81.1458 234.333 82.7917 235 84.625C235.708 86.4583 236.062 88.5417 236.062 90.875ZM309.75 73.3125C309.75 74.8542 309.729 76.1458 309.688 77.1875C309.646 78.2292 309.583 79.2083 309.5 80.125H265.438C265.438 86.5417 267.229 91.4792 270.812 94.9375C274.396 98.3542 279.562 100.062 286.312 100.062C288.146 100.062 289.979 100 291.812 99.875C293.646 99.7083 295.417 99.5 297.125 99.25C298.833 99 300.458 98.7292 302 98.4375C303.583 98.1042 305.042 97.75 306.375 97.375V106.312C303.417 107.146 300.062 107.812 296.312 108.312C292.604 108.854 288.75 109.125 284.75 109.125C279.375 109.125 274.75 108.396 270.875 106.938C267 105.479 263.812 103.375 261.312 100.625C258.854 97.8333 257.021 94.4375 255.812 90.4375C254.646 86.3958 254.062 81.8333 254.062 76.75C254.062 72.3333 254.688 68.1667 255.938 64.25C257.229 60.2917 259.083 56.8333 261.5 53.875C263.958 50.875 266.958 48.5 270.5 46.75C274.042 45 278.062 44.125 282.562 44.125C286.938 44.125 290.812 44.8125 294.188 46.1875C297.562 47.5625 300.396 49.5208 302.688 52.0625C305.021 54.5625 306.771 57.625 307.938 61.25C309.146 64.8333 309.75 68.8542 309.75 73.3125ZM298.438 71.75C298.562 68.9583 298.292 66.4167 297.625 64.125C296.958 61.7917 295.917 59.7917 294.5 58.125C293.125 56.4583 291.396 55.1667 289.312 54.25C287.229 53.2917 284.812 52.8125 282.062 52.8125C279.688 52.8125 277.521 53.2708 275.562 54.1875C273.604 55.1042 271.917 56.3958 270.5 58.0625C269.083 59.7292 267.938 61.7292 267.062 64.0625C266.188 66.3958 265.646 68.9583 265.438 71.75H298.438Z" fill="url(#paint0_linear)"/>
<path d="M337.5 64.2637C338.936 64.2637 340.28 64.5371 341.533 65.084C342.809 65.6309 343.914 66.3828 344.849 67.3398C345.806 68.2741 346.558 69.3792 347.104 70.6553C347.651 71.9085 347.925 73.2529 347.925 74.6885C347.925 76.124 347.651 77.4798 347.104 78.7559C346.558 80.0091 345.806 81.1143 344.849 82.0713C343.914 83.0055 342.809 83.7461 341.533 84.293C340.28 84.8398 338.936 85.1133 337.5 85.1133C336.064 85.1133 334.709 84.8398 333.433 84.293C332.179 83.7461 331.074 83.0055 330.117 82.0713C329.183 81.1143 328.442 80.0091 327.896 78.7559C327.349 77.4798 327.075 76.124 327.075 74.6885C327.075 73.2529 327.349 71.9085 327.896 70.6553C328.442 69.3792 329.183 68.2741 330.117 67.3398C331.074 66.3828 332.179 65.6309 333.433 65.084C334.709 64.5371 336.064 64.2637 337.5 64.2637Z" fill="url(#paint1_linear)"/>
<path d="M369.562 45.25H379.5L379.812 56.8125C383.521 52.3542 387.167 49.125 390.75 47.125C394.375 45.125 398.021 44.125 401.688 44.125C408.188 44.125 413.104 46.2292 416.438 50.4375C419.812 54.6458 421.375 60.8958 421.125 69.1875H410.125C410.25 63.6875 409.438 59.7083 407.688 57.25C405.979 54.75 403.458 53.5 400.125 53.5C398.667 53.5 397.188 53.7708 395.688 54.3125C394.229 54.8125 392.708 55.6458 391.125 56.8125C389.583 57.9375 387.938 59.3958 386.188 61.1875C384.438 62.9792 382.562 65.1458 380.562 67.6875V108H369.562V45.25ZM493.938 108H479.5L462.562 84.0625L445.812 108H431.75L456.062 76.5L432.875 45.25H446.812L463.312 69.375L479.5 45.25H492.938L469.375 76.75L493.938 108Z" fill="url(#paint2_radial)"/>
<g filter="url(#filter1_f)">
<path d="M369.562 45.25H379.5L379.812 56.8125C383.521 52.3542 387.167 49.125 390.75 47.125C394.375 45.125 398.021 44.125 401.688 44.125C408.188 44.125 413.104 46.2292 416.438 50.4375C419.812 54.6458 421.375 60.8958 421.125 69.1875H410.125C410.25 63.6875 409.438 59.7083 407.688 57.25C405.979 54.75 403.458 53.5 400.125 53.5C398.667 53.5 397.188 53.7708 395.688 54.3125C394.229 54.8125 392.708 55.6458 391.125 56.8125C389.583 57.9375 387.938 59.3958 386.188 61.1875C384.438 62.9792 382.562 65.1458 380.562 67.6875V108H369.562V45.25Z" fill="url(#paint3_radial)" fill-opacity="0.65"/>
</g>
<g filter="url(#filter2_f)">
<path d="M39.125 45.25H51.5L66.875 86.75L70.1875 96.875L73.625 86.5L88.875 45.25H100.812L76.1875 108H63.6875L39.125 45.25Z" fill="#40B883" style="mix-blend-mode:darken"/>
</g>
<defs>
<filter id="filter0_d" x="38.125" y="44.25" width="63.6875" height="64.75" filterUnits="userSpaceOnUse" color-interpolation-filters="sRGB">
<feFlood flood-opacity="0" result="BackgroundImageFix"/>
<feColorMatrix in="SourceAlpha" type="matrix" values="0 0 0 0 0 0 0 0 0 0 0 0 0 0 0 0 0 0 127 0"/>
<feOffset/>
<feGaussianBlur stdDeviation="0.5"/>
<feColorMatrix type="matrix" values="0 0 0 0 0.25098 0 0 0 0 0.721569 0 0 0 0 0.513726 0 0 0 0.45 0"/>
<feBlend mode="normal" in2="BackgroundImageFix" result="effect1_dropShadow"/>
<feBlend mode="normal" in="SourceGraphic" in2="effect1_dropShadow" result="shape"/>
</filter>
<filter id="filter1_f" x="341.562" y="16.125" width="107.588" height="119.875" filterUnits="userSpaceOnUse" color-interpolation-filters="sRGB">
<feFlood flood-opacity="0" result="BackgroundImageFix"/>
<feBlend mode="normal" in="SourceGraphic" in2="BackgroundImageFix" result="shape"/>
<feGaussianBlur stdDeviation="14" result="effect1_foregroundBlur"/>
</filter>
<filter id="filter2_f" x="11.125" y="17.25" width="117.688" height="118.75" filterUnits="userSpaceOnUse" color-interpolation-filters="sRGB">
<feFlood flood-opacity="0" result="BackgroundImageFix"/>
<feBlend mode="normal" in="SourceGraphic" in2="BackgroundImageFix" result="shape"/>
<feGaussianBlur stdDeviation="14" result="effect1_foregroundBlur"/>
</filter>
<linearGradient id="paint0_linear" x1="90.1" y1="77" x2="223.778" y2="77" gradientUnits="userSpaceOnUse">
<stop stop-color="#40B883"/>
<stop offset="0.312057" stop-color="#35495E"/>
</linearGradient>
<linearGradient id="paint1_linear" x1="323" y1="77" x2="364" y2="77" gradientUnits="userSpaceOnUse">
<stop offset="0.16048" stop-color="#35495E"/>
<stop offset="0.813205" stop-color="#E2008F"/>
</linearGradient>
<radialGradient id="paint2_radial" cx="0" cy="0" r="1" gradientUnits="userSpaceOnUse" gradientTransform="translate(376.136 98.4286) scale(95.6786 103.24)">
<stop stop-color="#E2008F"/>
<stop offset="1" stop-color="#49027A"/>
</radialGradient>
<radialGradient id="paint3_radial" cx="0" cy="0" r="1" gradientUnits="userSpaceOnUse" gradientTransform="translate(366.636 98.4286) scale(48.1786 103.24)">
<stop stop-color="#E2008F"/>
<stop offset="1" stop-color="#49027A"/>
</radialGradient>
</defs>
</svg>
