<svg width="513" height="153" viewBox="0 0 513 153" fill="none" xmlns="http://www.w3.org/2000/svg">
<g filter="url(#filter0_d)">
<path d="M29.125 44.25H41.5L56.875 85.75L60.1875 95.875L63.625 85.5L78.875 44.25H90.8125L66.1875 107H53.6875L29.125 44.25Z" fill="#40B883"/>
</g>
<path d="M156.438 107H146.688L146.312 96.875C144.438 99.0417 142.646 100.854 140.938 102.312C139.271 103.729 137.604 104.875 135.938 105.75C134.271 106.625 132.583 107.229 130.875 107.562C129.208 107.938 127.438 108.125 125.562 108.125C119.104 108.125 114.229 106.229 110.938 102.438C107.646 98.6458 106 92.9167 106 85.25V44.25H116.875V84.375C116.875 94 120.5 98.8125 127.75 98.8125C129.083 98.8125 130.375 98.625 131.625 98.25C132.917 97.8333 134.25 97.1458 135.625 96.1875C137.042 95.1875 138.542 93.8542 140.125 92.1875C141.75 90.5208 143.562 88.4167 145.562 85.875V44.25H156.438V107ZM226.062 89.875C226.062 92.0833 225.688 94.0625 224.938 95.8125C224.188 97.5625 223.167 99.125 221.875 100.5C220.583 101.833 219.083 102.979 217.375 103.938C215.667 104.896 213.833 105.688 211.875 106.312C209.958 106.938 207.979 107.396 205.938 107.688C203.896 107.979 201.896 108.125 199.938 108.125C195.688 108.125 191.771 107.938 188.188 107.562C184.646 107.188 181.167 106.583 177.75 105.75V95.75C181.417 96.7917 185.062 97.5833 188.688 98.125C192.312 98.6667 195.917 98.9375 199.5 98.9375C204.708 98.9375 208.562 98.2292 211.062 96.8125C213.562 95.3958 214.812 93.375 214.812 90.75C214.812 89.625 214.604 88.625 214.188 87.75C213.812 86.8333 213.104 85.9792 212.062 85.1875C211.021 84.3542 209.396 83.5 207.188 82.625C205.021 81.75 202.042 80.75 198.25 79.625C195.417 78.7917 192.792 77.8542 190.375 76.8125C188 75.7292 185.938 74.4583 184.188 73C182.438 71.5417 181.062 69.8333 180.062 67.875C179.062 65.9167 178.562 63.6042 178.562 60.9375C178.562 59.1875 178.958 57.2708 179.75 55.1875C180.583 53.1042 181.979 51.1667 183.938 49.375C185.896 47.5833 188.542 46.1042 191.875 44.9375C195.208 43.7292 199.375 43.125 204.375 43.125C206.833 43.125 209.562 43.2708 212.562 43.5625C215.562 43.8125 218.688 44.2708 221.938 44.9375V54.625C218.521 53.7917 215.271 53.1875 212.188 52.8125C209.146 52.3958 206.5 52.1875 204.25 52.1875C201.542 52.1875 199.25 52.3958 197.375 52.8125C195.542 53.2292 194.042 53.8125 192.875 54.5625C191.75 55.2708 190.938 56.125 190.438 57.125C189.938 58.0833 189.688 59.125 189.688 60.25C189.688 61.375 189.896 62.3958 190.312 63.3125C190.771 64.2292 191.583 65.125 192.75 66C193.958 66.8333 195.625 67.6875 197.75 68.5625C199.875 69.3958 202.646 70.3125 206.062 71.3125C209.771 72.3958 212.896 73.5417 215.438 74.75C217.979 75.9167 220.042 77.2292 221.625 78.6875C223.208 80.1458 224.333 81.7917 225 83.625C225.708 85.4583 226.062 87.5417 226.062 89.875ZM299.75 72.3125C299.75 73.8542 299.729 75.1458 299.688 76.1875C299.646 77.2292 299.583 78.2083 299.5 79.125H255.438C255.438 85.5417 257.229 90.4792 260.812 93.9375C264.396 97.3542 269.562 99.0625 276.312 99.0625C278.146 99.0625 279.979 99 281.812 98.875C283.646 98.7083 285.417 98.5 287.125 98.25C288.833 98 290.458 97.7292 292 97.4375C293.583 97.1042 295.042 96.75 296.375 96.375V105.312C293.417 106.146 290.062 106.812 286.312 107.312C282.604 107.854 278.75 108.125 274.75 108.125C269.375 108.125 264.75 107.396 260.875 105.938C257 104.479 253.812 102.375 251.312 99.625C248.854 96.8333 247.021 93.4375 245.812 89.4375C244.646 85.3958 244.062 80.8333 244.062 75.75C244.062 71.3333 244.688 67.1667 245.938 63.25C247.229 59.2917 249.083 55.8333 251.5 52.875C253.958 49.875 256.958 47.5 260.5 45.75C264.042 44 268.062 43.125 272.562 43.125C276.938 43.125 280.812 43.8125 284.188 45.1875C287.562 46.5625 290.396 48.5208 292.688 51.0625C295.021 53.5625 296.771 56.625 297.938 60.25C299.146 63.8333 299.75 67.8542 299.75 72.3125ZM288.438 70.75C288.562 67.9583 288.292 65.4167 287.625 63.125C286.958 60.7917 285.917 58.7917 284.5 57.125C283.125 55.4583 281.396 54.1667 279.312 53.25C277.229 52.2917 274.812 51.8125 272.062 51.8125C269.688 51.8125 267.521 52.2708 265.562 53.1875C263.604 54.1042 261.917 55.3958 260.5 57.0625C259.083 58.7292 257.938 60.7292 257.062 63.0625C256.188 65.3958 255.646 67.9583 255.438 70.75H288.438Z" fill="url(#paint0_linear)"/>
<path d="M327.5 63.2637C328.936 63.2637 330.28 63.5371 331.533 64.084C332.809 64.6309 333.914 65.3828 334.849 66.3398C335.806 67.2741 336.558 68.3792 337.104 69.6553C337.651 70.9085 337.925 72.2529 337.925 73.6885C337.925 75.124 337.651 76.4798 337.104 77.7559C336.558 79.0091 335.806 80.1143 334.849 81.0713C333.914 82.0055 332.809 82.7461 331.533 83.293C330.28 83.8398 328.936 84.1133 327.5 84.1133C326.064 84.1133 324.709 83.8398 323.433 83.293C322.179 82.7461 321.074 82.0055 320.117 81.0713C319.183 80.1143 318.442 79.0091 317.896 77.7559C317.349 76.4798 317.075 75.124 317.075 73.6885C317.075 72.2529 317.349 70.9085 317.896 69.6553C318.442 68.3792 319.183 67.2741 320.117 66.3398C321.074 65.3828 322.179 64.6309 323.433 64.084C324.709 63.5371 326.064 63.2637 327.5 63.2637Z" fill="url(#paint1_linear)"/>
<path d="M359.562 44.25H369.5L369.812 55.8125C373.521 51.3542 377.167 48.125 380.75 46.125C384.375 44.125 388.021 43.125 391.688 43.125C398.188 43.125 403.104 45.2292 406.438 49.4375C409.812 53.6458 411.375 59.8958 411.125 68.1875H400.125C400.25 62.6875 399.438 58.7083 397.688 56.25C395.979 53.75 393.458 52.5 390.125 52.5C388.667 52.5 387.188 52.7708 385.688 53.3125C384.229 53.8125 382.708 54.6458 381.125 55.8125C379.583 56.9375 377.938 58.3958 376.188 60.1875C374.438 61.9792 372.562 64.1458 370.562 66.6875V107H359.562V44.25ZM483.938 107H469.5L452.562 83.0625L435.812 107H421.75L446.062 75.5L422.875 44.25H436.812L453.312 68.375L469.5 44.25H482.938L459.375 75.75L483.938 107Z" fill="url(#paint2_radial)"/>
<g filter="url(#filter1_f)">
<path d="M359.562 44.25H369.5L369.812 55.8125C373.521 51.3542 377.167 48.125 380.75 46.125C384.375 44.125 388.021 43.125 391.688 43.125C398.188 43.125 403.104 45.2292 406.438 49.4375C409.812 53.6458 411.375 59.8958 411.125 68.1875H400.125C400.25 62.6875 399.438 58.7083 397.688 56.25C395.979 53.75 393.458 52.5 390.125 52.5C388.667 52.5 387.188 52.7708 385.688 53.3125C384.229 53.8125 382.708 54.6458 381.125 55.8125C379.583 56.9375 377.938 58.3958 376.188 60.1875C374.438 61.9792 372.562 64.1458 370.562 66.6875V107H359.562V44.25Z" fill="url(#paint3_radial)" fill-opacity="0.65"/>
</g>
<g filter="url(#filter2_f)">
<path d="M29.125 44.25H41.5L56.875 85.75L60.1875 95.875L63.625 85.5L78.875 44.25H90.8125L66.1875 107H53.6875L29.125 44.25Z" fill="#40B883"/>
</g>
<defs>
<filter id="filter0_d" x="28.125" y="43.25" width="63.6875" height="64.75" filterUnits="userSpaceOnUse" color-interpolation-filters="sRGB">
<feFlood flood-opacity="0" result="BackgroundImageFix"/>
<feColorMatrix in="SourceAlpha" type="matrix" values="0 0 0 0 0 0 0 0 0 0 0 0 0 0 0 0 0 0 127 0"/>
<feOffset/>
<feGaussianBlur stdDeviation="0.5"/>
<feColorMatrix type="matrix" values="0 0 0 0 0.25098 0 0 0 0 0.721569 0 0 0 0 0.513726 0 0 0 0.45 0"/>
<feBlend mode="normal" in2="BackgroundImageFix" result="effect1_dropShadow"/>
<feBlend mode="normal" in="SourceGraphic" in2="effect1_dropShadow" result="shape"/>
</filter>
<filter id="filter1_f" x="331.562" y="15.125" width="107.588" height="119.875" filterUnits="userSpaceOnUse" color-interpolation-filters="sRGB">
<feFlood flood-opacity="0" result="BackgroundImageFix"/>
<feBlend mode="normal" in="SourceGraphic" in2="BackgroundImageFix" result="shape"/>
<feGaussianBlur stdDeviation="14" result="effect1_foregroundBlur"/>
</filter>
<filter id="filter2_f" x="1.125" y="16.25" width="117.688" height="118.75" filterUnits="userSpaceOnUse" color-interpolation-filters="sRGB">
<feFlood flood-opacity="0" result="BackgroundImageFix"/>
<feBlend mode="normal" in="SourceGraphic" in2="BackgroundImageFix" result="shape"/>
<feGaussianBlur stdDeviation="14" result="effect1_foregroundBlur"/>
</filter>
<linearGradient id="paint0_linear" x1="80.1" y1="76" x2="213.778" y2="76" gradientUnits="userSpaceOnUse">
<stop stop-color="#40B883"/>
<stop offset="0.312057" stop-color="#35495E"/>
</linearGradient>
<linearGradient id="paint1_linear" x1="313" y1="76" x2="354" y2="76" gradientUnits="userSpaceOnUse">
<stop offset="0.16048" stop-color="#35495E"/>
<stop offset="0.813205" stop-color="#E2008F"/>
</linearGradient>
<radialGradient id="paint2_radial" cx="0" cy="0" r="1" gradientUnits="userSpaceOnUse" gradientTransform="translate(366.136 97.4286) scale(95.6786 103.24)">
<stop stop-color="#E2008F"/>
<stop offset="1" stop-color="#49027A"/>
</radialGradient>
<radialGradient id="paint3_radial" cx="0" cy="0" r="1" gradientUnits="userSpaceOnUse" gradientTransform="translate(356.636 97.4286) scale(48.1786 103.24)">
<stop stop-color="#E2008F"/>
<stop offset="1" stop-color="#49027A"/>
</radialGradient>
</defs>
</svg>
