<svg width="280" height="280" viewBox="0 0 28 28" fill="none" xmlns="http://www.w3.org/2000/svg">
<path d="M0.416718 4.11719H1.57687L3.01828 8.00781L3.32883 8.95703L3.65109 7.98438L5.08078 4.11719H6.19992L3.89133 10H2.71945L0.416718 4.11719ZM12.2937 10H11.3796L11.3445 9.05078C11.1687 9.25391 11.0007 9.42383 10.8405 9.56055C10.6843 9.69336 10.528 9.80078 10.3718 9.88281C10.2155 9.96484 10.0573 10.0215 9.89719 10.0527C9.74094 10.0879 9.57492 10.1055 9.39914 10.1055C8.79367 10.1055 8.33664 9.92773 8.02805 9.57227C7.71945 9.2168 7.56516 8.67969 7.56516 7.96094V4.11719H8.58469V7.87891C8.58469 8.78125 8.92453 9.23242 9.60422 9.23242C9.72922 9.23242 9.85031 9.21484 9.9675 9.17969C10.0886 9.14062 10.2136 9.07617 10.3425 8.98633C10.4753 8.89258 10.6159 8.76758 10.7644 8.61133C10.9167 8.45508 11.0866 8.25781 11.2741 8.01953V4.11719H12.2937V10Z" fill="#40B883"/>
<path d="M19.1316 6.74805C19.1316 6.89258 19.1296 7.01367 19.1257 7.11133C19.1218 7.20898 19.1159 7.30078 19.1081 7.38672H14.9773C14.9773 7.98828 15.1452 8.45117 15.4812 8.77539C15.8171 9.0957 16.3015 9.25586 16.9343 9.25586C17.1062 9.25586 17.278 9.25 17.4499 9.23828C17.6218 9.22266 17.7878 9.20312 17.948 9.17969C18.1081 9.15625 18.2605 9.13086 18.405 9.10352C18.5534 9.07227 18.6902 9.03906 18.8152 9.00391V9.8418C18.5378 9.91992 18.2234 9.98242 17.8718 10.0293C17.5241 10.0801 17.1628 10.1055 16.7878 10.1055C16.2839 10.1055 15.8503 10.0371 15.487 9.90039C15.1237 9.76367 14.8249 9.56641 14.5905 9.30859C14.3601 9.04688 14.1882 8.72852 14.0749 8.35352C13.9655 7.97461 13.9109 7.54688 13.9109 7.07031C13.9109 6.65625 13.9695 6.26562 14.0866 5.89844C14.2077 5.52734 14.3816 5.20312 14.6081 4.92578C14.8386 4.64453 15.1198 4.42188 15.4519 4.25781C15.7839 4.09375 16.1609 4.01172 16.5827 4.01172C16.9929 4.01172 17.3562 4.07617 17.6726 4.20508C17.989 4.33398 18.2546 4.51758 18.4695 4.75586C18.6882 4.99023 18.8523 5.27734 18.9616 5.61719C19.0749 5.95312 19.1316 6.33008 19.1316 6.74805ZM18.071 6.60156C18.0827 6.33984 18.0573 6.10156 17.9948 5.88672C17.9323 5.66797 17.8347 5.48047 17.7019 5.32422C17.573 5.16797 17.4109 5.04688 17.2155 4.96094C17.0202 4.87109 16.7937 4.82617 16.5359 4.82617C16.3132 4.82617 16.1101 4.86914 15.9265 4.95508C15.7429 5.04102 15.5847 5.16211 15.4519 5.31836C15.3191 5.47461 15.2116 5.66211 15.1296 5.88086C15.0476 6.09961 14.9968 6.33984 14.9773 6.60156H18.071Z" fill="#35495E"/>
<path d="M14.2777 18.1172H15.2094L15.2387 19.2012C15.5863 18.7832 15.9281 18.4805 16.2641 18.293C16.6039 18.1055 16.9457 18.0117 17.2895 18.0117C17.8988 18.0117 18.3598 18.209 18.6723 18.6035C18.9887 18.998 19.1352 19.584 19.1117 20.3613H18.0805C18.0922 19.8457 18.016 19.4727 17.852 19.2422C17.6918 19.0078 17.4555 18.8906 17.143 18.8906C17.0063 18.8906 16.8676 18.916 16.727 18.9668C16.5902 19.0137 16.4477 19.0918 16.2992 19.2012C16.1547 19.3066 16.0004 19.4434 15.8363 19.6113C15.6723 19.7793 15.4965 19.9824 15.309 20.2207V24H14.2777V18.1172Z" fill="#35495E"/>
<path d="M25.9379 24H24.5844L22.9965 21.7559L21.4262 24H20.1078L22.3871 21.0469L20.2133 18.1172H21.5199L23.0668 20.3789L24.5844 18.1172H25.8441L23.6352 21.0703L25.9379 24Z" fill="#40B883"/>
<path d="M12.316 17H11.4019L11.3668 16.0508C11.191 16.2539 11.023 16.4238 10.8629 16.5605C10.7066 16.6934 10.5504 16.8008 10.3941 16.8828C10.2379 16.9648 10.0797 17.0215 9.91953 17.0527C9.76328 17.0879 9.59726 17.1055 9.42148 17.1055C8.81601 17.1055 8.35898 16.9277 8.05038 16.5723C7.74179 16.2168 7.58749 15.6797 7.58749 14.9609V11.1172H8.60703V14.8789C8.60703 15.7812 8.94687 16.2324 9.62656 16.2324C9.75156 16.2324 9.87265 16.2148 9.98984 16.1797C10.1109 16.1406 10.2359 16.0762 10.3648 15.9863C10.4977 15.8926 10.6383 15.7676 10.7867 15.6113C10.9391 15.4551 11.109 15.2578 11.2965 15.0195V11.1172H12.316V17ZM25.7516 13.748C25.7516 13.8926 25.7496 14.0137 25.7457 14.1113C25.7418 14.209 25.7359 14.3008 25.7281 14.3867H21.5973C21.5973 14.9883 21.7652 15.4512 22.1012 15.7754C22.4371 16.0957 22.9215 16.2559 23.5543 16.2559C23.7262 16.2559 23.898 16.25 24.0699 16.2383C24.2418 16.2227 24.4078 16.2031 24.568 16.1797C24.7281 16.1562 24.8805 16.1309 25.025 16.1035C25.1734 16.0723 25.3102 16.0391 25.4352 16.0039V16.8418C25.1578 16.9199 24.8434 16.9824 24.4918 17.0293C24.1441 17.0801 23.7828 17.1055 23.4078 17.1055C22.9039 17.1055 22.4703 17.0371 22.107 16.9004C21.7437 16.7637 21.4449 16.5664 21.2105 16.3086C20.9801 16.0469 20.8082 15.7285 20.6949 15.3535C20.5855 14.9746 20.5309 14.5469 20.5309 14.0703C20.5309 13.6562 20.5894 13.2656 20.7066 12.8984C20.8277 12.5273 21.0016 12.2031 21.2281 11.9258C21.4586 11.6445 21.7398 11.4219 22.0719 11.2578C22.4039 11.0938 22.7809 11.0117 23.2027 11.0117C23.6129 11.0117 23.9762 11.0762 24.2926 11.2051C24.609 11.334 24.8746 11.5176 25.0894 11.7559C25.3082 11.9902 25.4723 12.2773 25.5816 12.6172C25.6949 12.9531 25.7516 13.3301 25.7516 13.748ZM24.691 13.6016C24.7027 13.3398 24.6773 13.1016 24.6148 12.8867C24.5523 12.668 24.4547 12.4805 24.3219 12.3242C24.193 12.168 24.0309 12.0469 23.8355 11.9609C23.6402 11.8711 23.4137 11.8262 23.1559 11.8262C22.9332 11.8262 22.7301 11.8691 22.5465 11.9551C22.3629 12.041 22.2047 12.1621 22.0719 12.3184C21.9391 12.4746 21.8316 12.6621 21.7496 12.8809C21.6676 13.0996 21.6168 13.3398 21.5973 13.6016H24.691Z" fill="#35495E"/>
<path d="M18.8434 15.3945C18.8434 15.6016 18.8082 15.7871 18.7379 15.9512C18.6676 16.1152 18.5719 16.2617 18.4508 16.3906C18.3297 16.5156 18.1891 16.623 18.0289 16.7129C17.8687 16.8027 17.6969 16.877 17.5133 16.9355C17.3336 16.9941 17.148 17.0371 16.9566 17.0645C16.7652 17.0918 16.5777 17.1055 16.3941 17.1055C15.9957 17.1055 15.6285 17.0879 15.2926 17.0527C14.9605 17.0176 14.6344 16.9609 14.3141 16.8828V15.9453C14.6578 16.043 14.9996 16.1172 15.3394 16.168C15.6793 16.2188 16.0172 16.2441 16.3531 16.2441C16.8414 16.2441 17.2027 16.1777 17.4371 16.0449C17.6715 15.9121 17.7887 15.7227 17.7887 15.4766C17.7887 15.3711 17.7691 15.2773 17.7301 15.1953C17.6949 15.1094 17.6285 15.0293 17.5309 14.9551C17.4332 14.877 17.2809 14.7969 17.0738 14.7148C16.8707 14.6328 16.5914 14.5391 16.2359 14.4336C15.9703 14.3555 15.7242 14.2676 15.4977 14.1699C15.275 14.0684 15.0816 13.9492 14.9176 13.8125C14.7535 13.6758 14.6246 13.5156 14.5309 13.332C14.4371 13.1484 14.3902 12.9316 14.3902 12.6816C14.3902 12.5176 14.4273 12.3379 14.5016 12.1426C14.5797 11.9473 14.7105 11.7656 14.8941 11.5977C15.0777 11.4297 15.3258 11.291 15.6383 11.1816C15.9508 11.0684 16.3414 11.0117 16.8102 11.0117C17.0406 11.0117 17.2965 11.0254 17.5777 11.0527C17.859 11.0762 18.1519 11.1191 18.4566 11.1816V12.0898C18.1363 12.0117 17.8316 11.9551 17.5426 11.9199C17.2574 11.8809 17.0094 11.8613 16.7984 11.8613C16.5445 11.8613 16.3297 11.8809 16.1539 11.9199C15.982 11.959 15.8414 12.0137 15.732 12.084C15.6266 12.1504 15.5504 12.2305 15.5035 12.3242C15.4566 12.4141 15.4332 12.5117 15.4332 12.6172C15.4332 12.7227 15.4527 12.8184 15.4918 12.9043C15.5348 12.9902 15.6109 13.0742 15.7203 13.1562C15.8336 13.2344 15.9898 13.3145 16.1891 13.3965C16.3883 13.4746 16.648 13.5605 16.9684 13.6543C17.316 13.7559 17.609 13.8633 17.8473 13.9766C18.0855 14.0859 18.2789 14.209 18.4273 14.3457C18.5758 14.4824 18.6812 14.6367 18.7437 14.8086C18.8102 14.9805 18.8434 15.1758 18.8434 15.3945Z" fill="#40B883"/>
</svg>
